Coordinates
version=1
nRows=6
nColumns=63
inDegrees=yes

Units are S.I. units (second, meters, Newtons, ...)
If the header above contains a line with 'inDegrees', this indicates whether rotational values are in degrees (yes) or radians (no).

endheader
time	pelvis_tilt	pelvis_list	pelvis_rotation	pelvis_tx	pelvis_ty	pelvis_tz	hip_flexion_r	hip_adduction_r	hip_rotation_r	knee_angle_r	knee_angle_r_beta	ankle_angle_r	subtalar_angle_r	mtp_angle_r	hip_flexion_l	hip_adduction_l	hip_rotation_l	knee_angle_l	knee_angle_l_beta	ankle_angle_l	subtalar_angle_l	mtp_angle_l	L5_S1_Flex_Ext	L5_S1_Lat_Bending	L5_S1_axial_rotation	L4_L5_Flex_Ext	L4_L5_Lat_Bending	L4_L5_axial_rotation	L3_L4_Flex_Ext	L3_L4_Lat_Bending	L3_L4_axial_rotation	L2_L3_Flex_Ext	L2_L3_Lat_Bending	L2_L3_axial_rotation	L1_L2_Flex_Ext	L1_L2_Lat_Bending	L1_L2_axial_rotation	L1_T12_Flex_Ext	L1_T12_Lat_Bending	L1_T12_axial_rotation	Abs_r3	Abs_r2	Abs_r1	Abs_t1	Abs_t2	neck_flexion	neck_bending	neck_rotation	arm_flex_r	arm_add_r	arm_rot_r	elbow_flex_r	pro_sup_r	wrist_flex_r	wrist_dev_r	arm_flex_l	arm_add_l	arm_rot_l	elbow_flex_l	pro_sup_l	wrist_flex_l	wrist_dev_l
      0.00000000	     -1.34447535	     -6.58268810	     92.26906521	      0.31677710	      0.93166441	      0.65061590	     -5.64425324	      1.79910408	     11.28586294	      1.21488268	      0.02120370	     23.69471252	     -1.68764765	      0.00000000	     -3.11463347	     -0.95901525	      5.01563719	      6.44094604	      0.11241572	     28.63976960	     -8.12528860	      0.00000000	     -0.03047444	     -0.07090000	      1.52502846	     -0.05659408	     -0.09429701	      1.62034274	     -0.05006646	     -0.17238627	      1.62034274	     -0.03482924	     -0.17238627	      1.33439990	     -0.02829857	     -0.14457929	      1.23908562	     -0.01741310	     -0.10982411	      1.14377134	     -0.21767588	     -0.80203502	      8.48175078	      0.00000000	      0.00000000	     24.89770101	     -0.05040892	     -5.94349650	     -0.42375170	    -23.08293260	     43.76444200	    108.86185960	     76.19550911	     13.78925224	      3.47302000	     -8.79031969	    -23.47397542	     32.10530394	    113.47224736	     72.48518672	      9.19351994	     11.34414354
      0.02040816	     -1.47156348	     -6.72671490	     93.08600586	      0.31554515	      0.93173710	      0.64923684	     -5.68832415	      1.64460503	     12.46066726	      1.15445533	      0.02014905	     23.24868745	     -3.90589902	      0.00000000	     -2.92390712	     -0.69625157	      6.35778506	      6.99594453	      0.12210227	     27.72394571	     -9.54566223	      0.00000000	      0.00624258	     -0.08198769	      1.57048065	      0.01159309	     -0.10904363	      1.66863569	      0.01025593	     -0.19934487	      1.66863569	      0.00713464	     -0.19934487	      1.37417057	      0.00579686	     -0.16718929	      1.27601553	      0.00356701	     -0.12699893	      1.17786049	      0.04459012	     -0.92746113	      8.73454222	      0.00000000	      0.00000000	     24.84252492	     -1.22442062	     -5.79347600	     -3.88895975	    -21.69451702	     39.67305154	    109.29217347	     78.96356661	     16.77481606	      4.61733611	     -7.47084278	    -24.77592407	     33.24097307	    113.03667196	     74.19083763	     19.63472221	     12.63335560
      0.04081633	     -1.56087814	     -6.76567629	     94.21642868	      0.31415855	      0.93190450	      0.64789452	     -5.85320178	      1.59264446	     12.27439414	      1.10141435	      0.01922331	     23.09925118	     -4.77153439	      0.00000000	     -2.74253180	     -0.59959701	      6.88003761	      7.54533898	      0.13169101	     27.54509400	     -9.17378741	      0.00000000	      0.02329105	     -0.09070038	      1.50645399	      0.04325381	     -0.12063151	      1.60060737	      0.03826487	     -0.22052891	      1.60060737	      0.02661934	     -0.22052891	      1.31814724	      0.02162807	     -0.18495622	      1.22399387	      0.01330851	     -0.14049490	      1.12984049	      0.16636565	     -1.02602089	      8.37844516	      0.00000000	      0.00000000	     24.79356338	     -1.27096547	     -4.97650217	     -6.10987342	    -20.76188537	     37.51050748	    109.50986712	     80.00057505	     16.96982192	      5.31367192	     -7.10706787	    -25.34362821	     33.93681676	    112.83212182	     74.63835533	     24.49227405	     13.46562157
      0.06122449	     -1.65238822	     -6.63575080	     94.83391272	      0.31312046	      0.93221535	      0.64647457	     -6.17158582	      1.49717251	     12.32193990	      1.04313569	      0.01820615	     23.14811758	     -5.23354083	      0.00000000	     -2.76037662	     -0.49522384	      6.93350076	      8.05246455	      0.14054202	     27.62345628	     -8.76232445	      0.00000000	      0.00955949	     -0.09517191	      1.47197070	      0.01775292	     -0.12657865	      1.56396887	      0.01570528	     -0.23140099	      1.56396887	      0.01092554	     -0.23140099	      1.28797436	      0.00887694	     -0.19407457	      1.19597619	      0.00546229	     -0.14742130	      1.10397803	      0.06828246	     -1.07660374	      8.18665945	      0.00000000	      0.00000000	     24.62226743	     -1.78696221	     -5.17884470	     -7.54859124	    -20.04712118	     35.87435174	    109.64394820	     82.81823919	     17.28376776	      5.85116249	     -8.30630214	    -24.47012671	     32.28966111	    112.49392266	     75.50924566	     29.02040656	     14.65300352
      0.08163265	     -1.72702834	     -6.64782765	     95.51813793	      0.31244043	      0.93233081	      0.64499030	     -6.32522034	      1.45226800	     11.45035145	      1.00969816	      0.01762256	     23.43547306	     -4.56940447	      0.00000000	     -2.64034374	     -0.44241839	      7.13476478	      8.41511844	      0.14687152	     27.80865551	     -8.35498151	      0.00000000	      0.02093319	     -0.10682841	      1.43610175	      0.03887502	     -0.14208179	      1.52585811	      0.03439113	     -0.25974261	      1.52585811	      0.02392454	     -0.25974261	      1.25658904	      0.01943856	     -0.21784450	      1.16683268	      0.01196122	     -0.16547721	      1.07707632	      0.14952366	     -1.20846438	      7.98716713	      0.00000000	      0.00000000	     24.35836556	     -1.80511994	     -5.27093422	     -8.63370386	    -19.49079230	     34.94799409	    109.46912386	     85.20105536	     16.30192155	      5.39643683	    -10.03365448	    -23.55036440	     30.60594048	    112.48328128	     76.57347444	     29.06989055	     14.98447864
      0.10204082	     -1.83990715	     -6.58837329	     96.30635935	      0.31175000	      0.93246955	      0.64378831	     -6.53377435	      1.38284176	      8.77927977	      0.99569668	      0.01737819	     24.26892908	     -1.45620607	      0.00000000	     -2.42673603	     -0.46690481	      6.29415932	      9.02101846	      0.15744647	     28.57470684	     -6.26472041	      0.00000000	      0.01738719	     -0.12604203	      1.39343951	      0.03228975	     -0.16763590	      1.48052948	      0.02856541	     -0.30645859	      1.48052948	      0.01987182	     -0.30645859	      1.21925957	      0.01614574	     -0.25702491	      1.13216960	      0.00993504	     -0.19523910	      1.04507963	      0.12419495	     -1.42581264	      7.74989250	      0.00000000	      0.00000000	     23.97819675	     -1.79452247	     -5.85921714	     -9.39878945	    -19.01562609	     34.19280942	    109.38446783	     86.91601405	     15.22178951	      6.07986820	    -11.95796582	    -22.51357778	     28.94917369	    112.84353474	     77.19464618	     25.49518880	     15.78408424
